<svg width="126" height="20" viewBox="0 0 126 20" fill="none" xmlns="http://www.w3.org/2000/svg">
<g clip-path="url(#clip0_452_69)">
<path d="M118.887 13.2202V6.56706H116.647L116.632 6.62267C116.039 8.72581 114.137 10.1953 112.01 10.1953C109.355 10.1953 107.195 7.97758 107.195 5.25092C107.195 2.52426 109.355 0.306534 112.01 0.306534C114.247 0.306534 116.222 1.93444 116.71 4.17576L116.723 4.23643H118.891V0.00488281H121.534V13.2202H118.891H118.887ZM112.008 2.63717C110.921 2.63717 109.864 3.81007 109.864 5.2526C109.864 6.69514 110.921 7.86804 112.008 7.86804C113.096 7.86804 114.196 6.69514 114.196 5.2526C114.196 3.81007 113.096 2.63717 112.008 2.63717Z" fill="#102F6F"/>
<path d="M125.554 0.00488281H122.91V13.2202H125.554V0.00488281Z" fill="#102F6F"/>
<path d="M111.379 19.4842V12.9473H114.327V16.8519H125.547V19.4842H111.379Z" fill="#102F6F"/>
<path d="M66.877 14.9296V0.617188H69.8457V12.2805H78.5877V14.9296H66.877Z" fill="#102F6F"/>
<path d="M80.0146 19.6257V0.00488281H82.9834V6.40023H85.7252V9.05105H82.9834V19.6257H80.0146Z" fill="#102F6F"/>
<path d="M104.974 0.00488281H102.009V19.597H104.974V0.00488281Z" fill="#102F6F"/>
<path d="M87.9531 15.1195V0.613281H90.9168V5.93515H95.8958V0.613281H98.8594V15.1195H87.9531ZM90.9168 12.4737H95.8958V8.5826H90.9168V12.4737Z" fill="#102F6F"/>
<path d="M40.4403 10.6065V8.27586L37.1328 8.26238V6.2098L40.4403 6.22497V4.40832L37.3597 4.39484V2.34226L40.4403 2.35574V0.00488281H43.4056V10.6065H40.4403Z" fill="#102F6F"/>
<path d="M26.9688 9.66584C31.0485 8.34802 33.8919 6.28196 33.8919 3.90751V2.97727H27.0534V0.623047H36.5558V3.65641C36.5558 8.45924 31.3177 10.8859 27.9087 11.9055L26.9688 9.66416V9.66584Z" fill="#102F6F"/>
<path d="M36.8326 19.9934C33.3846 19.9934 30.5801 17.9459 30.5801 15.4265C30.5801 12.9072 33.3846 10.8613 36.8326 10.8613C40.2806 10.8613 43.0851 12.9088 43.0851 15.4265C43.0851 17.9442 40.2806 19.9934 36.8326 19.9934ZM36.8326 13.0083C35.1086 13.0083 33.7046 14.0935 33.7046 15.4265C33.7046 16.7595 35.1069 17.8465 36.8326 17.8465C38.5583 17.8465 39.9605 16.7612 39.9605 15.4265C39.9605 14.0919 38.5566 13.0083 36.8326 13.0083Z" fill="#102F6F"/>
<path d="M55.1362 19.9956C51.6526 19.9956 48.8193 17.9649 48.8193 15.4691C48.8193 12.9733 51.6526 10.9443 55.1362 10.9443C58.6198 10.9443 61.453 12.975 61.453 15.4691C61.453 17.9632 58.6198 19.9956 55.1362 19.9956ZM55.1362 13.0711C53.3935 13.0711 51.9761 14.1462 51.9761 15.4691C51.9761 16.792 53.3935 17.8671 55.1362 17.8671C56.8788 17.8671 58.2963 16.792 58.2963 15.4691C58.2963 14.1462 56.8788 13.0711 55.1362 13.0711Z" fill="#102F6F"/>
<path d="M45.3838 10.3052V8.08237H53.6533V6.80668H47.6921V0.529297H62.441V2.64086H50.6608V4.69343H62.441V6.80668H56.622V8.08237H64.8949V10.3052H45.3838Z" fill="#102F6F"/>
<path d="M8.75622 1.13379H-0.217773V18.8571H2.16671L8.75622 9.99458V1.13379Z" fill="#ED7100"/>
<path fill-rule="evenodd" clip-rule="evenodd" d="M15.3454 1.13379L8.75925 9.99121L8.75586 9.99627V18.8571H23.5285V1.13379H15.3454ZM11.6633 8.59375H12.3932L12.3898 12.4394L16.1088 8.60049H17.0521L14.2764 11.4114L17.1655 15.038H16.251L13.7683 11.917L12.3898 13.3039V15.0329H11.6582L11.665 8.59544L11.6633 8.59375ZM21.0898 11.8685C21.3947 12.1567 21.6301 12.4954 21.796 12.8847L21.7927 12.883C21.9586 13.274 22.0399 13.6953 22.0399 14.1486V14.1672C22.0399 14.6205 21.9552 15.0435 21.7893 15.4361C21.6233 15.8288 21.3862 16.1675 21.0814 16.4557C20.7765 16.7438 20.4124 16.9696 19.9907 17.1348C19.5691 17.2999 19.105 17.3825 18.6004 17.3825L16.3564 17.3791V16.0108H17.0864V16.7101H18.6021C19.0085 16.7101 19.3794 16.6461 19.7113 16.518C20.0449 16.3882 20.3278 16.2113 20.5581 15.9855C20.7884 15.7597 20.9679 15.4917 21.0949 15.1816C21.2219 14.8716 21.2863 14.5396 21.2863 14.184V14.1655C21.288 13.8116 21.2236 13.4779 21.0983 13.1678C20.973 12.8594 20.7935 12.5898 20.5632 12.3589C20.3328 12.1297 20.0517 11.9477 19.7181 11.8163C19.3845 11.6848 19.0153 11.6174 18.6088 11.6174L17.0931 11.6158V13.5706L16.3649 12.605V10.9434L18.6105 10.9467C19.1152 10.9467 19.5792 11.0276 20.0009 11.1911C20.4226 11.3545 20.785 11.5804 21.0898 11.8685Z" fill="#102F6F"/>
</g>
<defs>
<clipPath id="clip0_452_69">
<rect width="126" height="20" fill="white"/>
</clipPath>
</defs>
</svg>
