<svg width="113" height="18" viewBox="0 0 113 18" fill="none" xmlns="http://www.w3.org/2000/svg">
<path d="M104.164 5.9812V5.93319H106.17V11.8854H108.523V0.0673828H106.17V3.84992H104.241V3.79232C103.799 1.78585 102.033 0.336191 100.045 0.336191C97.6837 0.336191 95.7637 2.32346 95.7637 4.76195C95.7637 7.20044 97.6837 9.18771 100.045 9.18771C101.937 9.18771 103.626 7.87246 104.154 5.99079M98.135 4.76195C98.135 3.4755 99.0758 2.41946 100.045 2.41946C101.015 2.41946 101.994 3.4659 101.994 4.76195C101.994 6.058 101.015 7.10443 100.045 7.10443C99.0758 7.10443 98.135 6.058 98.135 4.76195Z" fill="white"/>
<path d="M112.103 0.0576172H109.751V11.8756H112.103V0.0576172Z" fill="white"/>
<path d="M102.119 11.6357H99.498V17.4823H112.103V15.1303H102.119V11.6357Z" fill="white"/>
<path d="M62.6616 0.604492H60.0215V13.4017H70.4379V11.0305H62.6616V0.604492Z" fill="white"/>
<path d="M74.3452 0.0576172H71.7051V17.607H74.3452V8.1507H76.7837V5.77941H74.3452V0.0576172Z" fill="white"/>
<path d="M93.8628 0.0576172H91.2227V17.5782H93.8628V0.0576172Z" fill="white"/>
<path d="M85.7883 5.36627H81.353V0.604492H78.7129V13.5745H88.4188V0.604492H85.7787V5.36627H85.7883ZM85.7883 11.2129H81.3626V7.73755H85.7883V11.2129Z" fill="white"/>
<path d="M36.3184 2.16008L33.5727 2.15048V3.98415L36.3184 3.99375V5.6258L33.3711 5.60661V7.44027L36.3184 7.45947V9.54274H38.9585V0.0576172H36.3184V2.16008Z" fill="white"/>
<path d="M32.8618 3.32139V0.604492H24.404V2.70697H30.4906V3.54219C30.4906 5.66387 27.9561 7.51674 24.3271 8.68798L25.1624 10.6944C28.1961 9.78241 32.8618 7.61274 32.8618 3.32139Z" fill="white"/>
<path d="M33.1014 9.77344C30.0293 9.77344 27.5332 11.6071 27.5332 13.8536C27.5332 16.1001 30.0293 17.9337 33.1014 17.9337C36.1735 17.9337 38.6696 16.1001 38.6696 13.8536C38.6696 11.6071 36.1735 9.77344 33.1014 9.77344ZM33.1014 16.0233C31.5653 16.0233 30.3173 15.0536 30.3173 13.8632C30.3173 12.6727 31.5653 11.7031 33.1014 11.7031C34.6374 11.7031 35.8855 12.6727 35.8855 13.8632C35.8855 15.0536 34.6374 16.0233 33.1014 16.0233Z" fill="white"/>
<path d="M49.4803 9.83984C46.3794 9.83984 43.8545 11.6543 43.8545 13.8912C43.8545 16.1281 46.3794 17.9425 49.4803 17.9425C52.5812 17.9425 55.0965 16.1281 55.0965 13.8912C55.0965 11.6543 52.5716 9.83984 49.4803 9.83984ZM49.4803 16.0321C47.925 16.0321 46.6674 15.072 46.6674 13.8912C46.6674 12.7103 47.925 11.7503 49.4803 11.7503C51.0355 11.7503 52.2932 12.7103 52.2932 13.8912C52.2932 15.072 51.0355 16.0321 49.4803 16.0321Z" fill="white"/>
<path d="M50.8053 6.14453H55.9799V4.25326H45.4963V2.41959H55.9799V0.52832H42.8562V6.14453H48.1556V7.28697H40.8018V9.27423H58.1592V7.28697H50.8053V6.14453Z" fill="white"/>
<path d="M8.04508 0.988281H0V16.9537H2.14088L8.04508 8.96618V0.988281Z" fill="white"/>
<path d="M21.2939 16.9541H8.04492V8.9668H8.05469L13.959 0.988281H21.2939V16.9541ZM14.8613 9.82129V11.3193L15.5146 12.1924V10.4258H16.8779C17.2426 10.4258 17.5689 10.4837 17.876 10.6084C18.1736 10.7236 18.4236 10.8865 18.6348 11.0977C18.846 11.3089 18.9991 11.5497 19.1143 11.8281C19.2294 12.1065 19.2871 12.4042 19.2871 12.7305V12.749C19.2871 13.0657 19.2294 13.373 19.1143 13.6514C18.9991 13.9298 18.8364 14.1705 18.6348 14.3721C18.4236 14.5737 18.1736 14.7364 17.876 14.8516C17.5784 14.9667 17.2426 15.0244 16.8779 15.0244H15.5244V14.3906H14.8711V15.6201H16.8877C17.3387 15.6201 17.7519 15.5434 18.1357 15.3994C18.51 15.2554 18.8359 15.0433 19.1143 14.7842C19.3926 14.5251 19.6041 14.2183 19.748 13.8633C19.9016 13.5081 19.9687 13.1334 19.9688 12.7207V12.7012C19.9687 12.2884 19.892 11.9138 19.748 11.5586L19.6816 11.4375C19.5409 11.1391 19.348 10.883 19.1045 10.6562C18.8358 10.3972 18.5097 10.1955 18.126 10.042C17.7516 9.89802 17.329 9.82132 16.8779 9.82129H14.8613ZM10.6465 13.5068H11.2998L11.3096 11.9521L12.5381 10.7041L14.7656 13.5068L15.5908 13.5166L12.999 10.2432L15.4854 7.70898H14.6406L11.3096 11.1748V7.70898H10.6562L10.6465 13.5068Z" fill="white"/>
</svg>
